<?xml version="1.0" standalone="no"?>
<!DOCTYPE svg PUBLIC "-//W3C//DTD SVG 20010904//EN"
 "http://www.w3.org/TR/2001/REC-SVG-20010904/DTD/svg10.dtd">
<svg version="1.0" xmlns="http://www.w3.org/2000/svg"
 width="576.000000pt" height="576.000000pt" viewBox="0 0 576.000000 576.000000"
 preserveAspectRatio="xMidYMid meet">
<metadata>
Created by potrace 1.14, written by Peter Selinger 2001-2017
</metadata>
<g transform="translate(0.000000,576.000000) scale(0.100000,-0.100000)"
fill="#000000" stroke="none">
<path d="M2518 5430 c-9 -6 -33 -54 -53 -107 -21 -54 -43 -111 -50 -128 -7
-16 -25 -65 -41 -107 -28 -78 -29 -78 -79 -94 -27 -9 -56 -21 -62 -27 -7 -5
-13 -7 -13 -4 0 4 -26 -4 -57 -17 -32 -13 -91 -36 -131 -52 -91 -35 -104 -44
-107 -78 -5 -43 13 -72 58 -92 23 -11 43 -18 44 -16 2 1 17 -5 33 -13 16 -8
31 -15 32 -14 2 0 14 -4 28 -10 14 -5 70 -26 126 -46 l101 -37 34 -91 c19 -51
34 -94 35 -97 0 -3 6 -18 13 -35 7 -16 24 -61 38 -100 28 -76 53 -105 90 -105
45 0 61 19 98 117 21 54 43 112 50 128 7 17 25 65 41 107 l28 77 101 37 c55
20 123 44 150 54 76 27 165 68 166 77 6 37 5 61 -3 79 -13 27 -40 39 -314 139
l-101 37 -34 91 c-19 51 -34 94 -35 97 0 3 -6 19 -13 35 -7 17 -24 62 -38 100
-14 39 -35 78 -46 88 -22 19 -63 22 -89 7z"/>
<path d="M4487 5420 c-37 -10 -91 -32 -121 -50 -65 -40 -3954 -3927 -3976
-3975 -8 -16 -19 -36 -24 -44 -6 -7 -11 -18 -12 -25 -1 -6 -9 -32 -17 -58 -19
-60 -15 -206 8 -273 10 -27 33 -75 53 -105 35 -56 393 -420 467 -476 140 -106
322 -121 495 -42 61 28 171 135 2020 1984 1078 1078 1968 1975 1985 2001 30
47 57 113 48 113 -3 0 0 7 7 15 17 20 21 175 6 238 -28 120 -56 158 -285 387
-119 119 -232 227 -251 241 -114 82 -259 107 -403 69z m243 -690 c61 -61 110
-113 110 -116 0 -4 -234 -240 -520 -526 -468 -468 -522 -519 -537 -507 -33 26
-213 209 -213 216 0 10 1033 1043 1043 1043 4 0 57 -50 117 -110z"/>
<path d="M915 5111 c-32 -14 -53 -43 -81 -112 -14 -35 -27 -71 -29 -79 -2 -8
-25 -69 -50 -135 -25 -66 -60 -158 -77 -205 -17 -47 -36 -90 -42 -96 -6 -6
-137 -58 -291 -115 -238 -88 -285 -109 -314 -138 -30 -31 -33 -39 -28 -78 8
-75 25 -85 312 -191 44 -16 89 -33 100 -37 11 -5 22 -9 25 -10 3 -1 13 -5 23
-8 19 -8 37 -13 52 -17 6 -1 15 -5 20 -9 6 -4 29 -13 53 -21 51 -16 54 -19 80
-95 11 -34 26 -74 33 -90 33 -83 79 -204 106 -280 56 -160 78 -187 150 -191
44 -3 50 0 86 38 21 22 36 42 34 45 -3 2 6 32 20 66 13 34 49 130 80 212 31
83 66 176 77 207 12 31 25 60 29 65 8 8 23 13 276 107 84 31 166 63 182 72 16
8 29 11 29 7 0 -4 5 -2 12 5 7 7 22 12 35 12 12 0 40 17 62 38 37 35 40 41 37
85 -4 72 -31 94 -191 150 -76 27 -197 73 -280 106 -16 7 -56 22 -90 33 -73 25
-81 31 -90 66 -4 15 -13 41 -20 57 -8 17 -37 93 -65 170 -28 77 -61 167 -75
200 -13 33 -27 72 -31 88 -14 58 -102 101 -159 78z"/>
<path d="M4397 2518 c-21 -22 -36 -42 -34 -45 3 -2 -6 -32 -20 -66 -13 -34
-36 -93 -49 -132 -14 -38 -32 -85 -40 -103 -9 -18 -17 -40 -19 -50 -8 -34 -71
-192 -81 -201 -5 -4 -85 -36 -179 -70 -93 -35 -183 -69 -200 -76 -16 -7 -50
-20 -75 -28 -143 -48 -175 -75 -175 -147 0 -82 7 -86 315 -200 107 -39 209
-78 225 -85 17 -7 42 -16 57 -20 32 -8 40 -18 57 -65 8 -19 22 -60 34 -90 11
-30 23 -64 28 -75 18 -44 103 -273 119 -319 23 -69 68 -105 126 -102 59 3 87
31 121 120 15 39 28 76 30 81 1 6 23 64 48 130 25 66 60 158 77 205 17 47 36
90 42 96 6 6 49 25 96 42 47 17 139 52 205 77 66 25 125 47 130 48 6 2 42 15
81 30 94 36 119 64 118 128 -1 73 -22 91 -179 149 -33 12 -69 26 -80 30 -11 4
-36 13 -55 20 -19 7 -48 18 -65 25 -16 7 -77 29 -135 50 -58 21 -110 43 -116
49 -6 6 -28 58 -49 116 -21 58 -43 119 -50 135 -7 17 -18 46 -25 65 -7 19 -16
44 -20 55 -4 11 -18 47 -30 80 -57 154 -76 177 -147 181 -44 3 -50 0 -86 -38z"/>
</g>
</svg>
